<svg width="44" height="44" viewBox="0 0 44 44" fill="none" xmlns="http://www.w3.org/2000/svg">
<path d="M0 14.0938C0 6.30999 6.30999 0 14.0938 0H29.9062C37.69 0 44 6.30999 44 14.0938V29.9062C44 37.69 37.69 44 29.9062 44H14.0938C6.30999 44 0 37.69 0 29.9062V14.0938Z" fill="url(#paint0_linear_159_1256)"/>
<path d="M26.2336 20.276L24.8679 17.4599C24.0861 17.4599 23.4551 18.0909 23.4551 18.8727V31.3099C23.4551 31.649 23.3515 31.9786 23.1631 32.2565C22.5132 33.2077 21.1193 33.2313 20.4317 32.3036L20.4082 32.2706C20.1962 31.9833 20.0785 31.6348 20.0785 31.2769V18.9339C20.0785 18.8303 20.0691 18.7267 20.0455 18.6278V18.6231C19.7159 17.1396 17.6014 17.1538 17.2859 18.6372C17.2671 18.7314 17.2529 18.8303 17.2529 18.9292V31.2487C17.2529 32.0116 17.446 32.7604 17.818 33.4291L17.8416 33.4668C19.5652 36.5608 24.0296 36.5231 25.7014 33.4008C26.0499 32.7509 26.2336 32.0257 26.2336 31.2864V20.276Z" fill="white"/>
<path d="M9.28125 18.8354C9.28125 18.076 9.89686 17.4604 10.6562 17.4604H18.6484C19.4078 17.4604 20.0234 18.076 20.0234 18.8354C20.0234 19.5948 19.4078 20.2104 18.6484 20.2104H10.6563C9.89686 20.2104 9.28125 19.5948 9.28125 18.8354Z" fill="white"/>
<path d="M9.28125 13.4213C9.28125 12.6619 9.89686 12.0463 10.6562 12.0463H33.4297C34.1891 12.0463 34.8047 12.6619 34.8047 13.4213C34.8047 14.1807 34.1891 14.7963 33.4297 14.7963H10.6562C9.89686 14.7963 9.28125 14.1807 9.28125 13.4213Z" fill="white"/>
<path d="M23.5469 18.8354C23.5469 18.076 24.1625 17.4604 24.9219 17.4604H33.4297C34.1891 17.4604 34.8047 18.076 34.8047 18.8354C34.8047 19.5948 34.1891 20.2104 33.4297 20.2104H24.9219C24.1625 20.2104 23.5469 19.5948 23.5469 18.8354Z" fill="white"/>
<path d="M28.9728 23.402C28.4358 22.865 28.4358 21.9944 28.9728 21.4574L32.4272 18.003C32.9642 17.466 33.8348 17.466 34.3717 18.003C34.9087 18.54 34.9087 19.4106 34.3717 19.9475L30.9173 23.402C30.3803 23.9389 29.5097 23.9389 28.9728 23.402Z" fill="white"/>
<path d="M9.65196 14.3634C9.11499 13.8265 9.11499 12.9559 9.65196 12.4189L12.9345 9.13632C13.4715 8.59935 14.3421 8.59935 14.8791 9.13632C15.4161 9.67329 15.4161 10.5439 14.8791 11.0809L11.5965 14.3634C11.0595 14.9004 10.1889 14.9004 9.65196 14.3634Z" fill="white"/>
<defs>
<linearGradient id="paint0_linear_159_1256" x1="6.15254" y1="4.23077" x2="-8.43509" y2="86.0695" gradientUnits="userSpaceOnUse">
<stop stop-color="#54C3FF"/>
<stop offset="1" stop-color="#A453FF"/>
</linearGradient>
</defs>
</svg>
