<svg width="187" height="24" viewBox="0 0 187 24" fill="none" xmlns="http://www.w3.org/2000/svg">
<path d="M31.6667 6.32203C32.5556 7.31356 33 8.52542 33 10.178V18H29.6667V10.6186C29.6667 8.9661 28.6667 7.97458 27.1111 7.97458C25.4444 7.97458 24.3333 8.9661 24.3333 11.1695V18H21V5.33051H24.3333V6.76271C25.1111 5.55085 26.4444 5 28.1111 5C29.6667 5 30.7778 5.44068 31.6667 6.32203Z" fill="#4065C2"/>
<path d="M53 8.40719V9.7006C53 12.1796 52.2364 14.2275 50.6 15.7365C48.9636 17.2455 46.8909 18 44.3818 18C41.6545 18 39.3636 17.1377 37.6182 15.4132C35.8727 13.6886 35 11.5329 35 9.05389C35 6.57485 35.8727 4.41916 37.6182 2.58683C39.3636 0.862275 41.5455 0 44.1636 0C47.4364 0 50.2727 1.61677 51.8 3.98802L48.8545 5.71258C47.9818 4.31138 46.2364 3.34132 44.1636 3.34132C42.5273 3.34132 41.1091 3.88024 40.0182 4.95808C38.9273 6.03593 38.3818 7.43713 38.3818 9.05389C38.3818 10.6707 38.9273 12.0719 40.0182 13.1497C41.1091 14.2275 42.5273 14.7665 44.3818 14.7665C47.1091 14.7665 48.8545 13.4731 49.5091 11.4251H44.1636V8.40719H53Z" fill="#4065C2"/>
<path d="M58.2308 7.44444C58.8769 5.77778 60.2769 5 62 5V8.66667C61.0308 8.55556 60.1692 8.77778 59.4154 9.33333C58.6615 9.88889 58.2308 10.7778 58.2308 12V18H55V5.22222H58.2308V7.44444Z" fill="#4065C2"/>
<path d="M64 1.96364C64 0.872727 64.8889 0 66 0C67.1111 0 68 0.981818 68 1.96364C68 3.05455 67.1111 3.92727 66 3.92727C64.8889 3.92727 64 3.05455 64 1.96364ZM64.3333 18V5.45455H67.6667V18H64.3333Z" fill="#4065C2"/>
<path d="M79.8293 0H83V17.6707H79.8293V16.1341C78.878 17.3415 77.6098 18 75.9187 18C74.3333 18 72.8537 17.3415 71.6911 16.1341C70.5285 14.8171 70 13.2805 70 11.4146C70 9.54878 70.6341 8.0122 71.6911 6.69512C72.8537 5.37805 74.2276 4.71951 75.9187 4.71951C77.6098 4.71951 78.9837 5.37805 79.8293 6.58537V0ZM76.4472 14.9268C77.3984 14.9268 78.2439 14.5976 78.878 13.939C79.5122 13.2805 79.8293 12.4024 79.8293 11.4146C79.8293 10.4268 79.5122 9.54878 78.878 8.89024C78.2439 8.12195 77.5041 7.79268 76.4472 7.79268C75.3902 7.79268 74.6504 8.12195 74.0163 8.78049C73.3821 9.43902 73.065 10.3171 73.065 11.3049C73.065 12.2927 73.3821 13.1707 74.0163 13.8293C74.7561 14.5976 75.4959 14.9268 76.4472 14.9268Z" fill="#4065C2"/>
<path d="M94.3141 12.7342C94.3719 13.7625 94.6152 14.5974 95.044 15.2391C95.8606 16.4401 97.2997 17.0406 99.3616 17.0406C100.285 17.0406 101.127 16.909 101.885 16.6458C103.353 16.1357 104.087 15.2226 104.087 13.9064C104.087 12.9193 103.778 12.2159 103.16 11.7964C102.533 11.3851 101.551 11.0273 100.215 10.7229L97.7534 10.1676C96.1451 9.80565 95.0069 9.40669 94.3389 8.97069C93.1842 8.21388 92.6069 7.08278 92.6069 5.57738C92.6069 3.94858 93.1718 2.61183 94.3018 1.5671C95.4317 0.52236 97.0317 0 99.1018 0C101.007 0 102.626 0.458607 103.958 1.37584C105.29 2.29306 105.956 3.75937 105.956 5.77481H103.642C103.518 4.80411 103.254 4.05964 102.85 3.54139C102.1 2.59537 100.826 2.12237 99.0276 2.12237C97.576 2.12237 96.5327 2.42673 95.8977 3.03548C95.2626 3.64422 94.9451 4.35167 94.9451 5.15784C94.9451 6.04628 95.3162 6.69614 96.0585 7.10746C96.5451 7.3707 97.6461 7.69974 99.3616 8.0946L101.91 8.67455C103.139 8.95424 104.087 9.33676 104.756 9.82211C105.91 10.6694 106.488 11.8992 106.488 13.5116C106.488 15.5188 105.756 16.9542 104.292 17.818C102.828 18.6818 101.127 19.1136 99.1884 19.1136C96.9286 19.1136 95.1595 18.5378 93.8811 17.3861C92.6028 16.2427 91.976 14.692 92.0007 12.7342H94.3141ZM117.585 5.36761H120.046C119.733 6.21491 119.036 8.14806 117.956 11.1671C117.147 13.4375 116.471 15.2884 115.927 16.7198C114.64 20.0926 113.733 22.1491 113.205 22.8895C112.677 23.6298 111.77 24 110.483 24C110.17 24 109.929 23.9877 109.76 23.963C109.591 23.9383 109.382 23.8931 109.135 23.8273V21.8036C109.523 21.9105 109.803 21.9764 109.976 22.001C110.149 22.0257 110.302 22.038 110.434 22.038C110.846 22.038 111.149 21.9702 111.343 21.8344C111.537 21.6987 111.7 21.5321 111.832 21.3347C111.873 21.2689 112.022 20.9316 112.277 20.3229C112.533 19.7141 112.719 19.2617 112.834 18.9656L107.935 5.36761H110.459L114.009 16.1275L117.585 5.36761ZM123.3 14.437C123.366 15.1774 123.552 15.745 123.857 16.1398C124.418 16.8555 125.391 17.2134 126.776 17.2134C127.601 17.2134 128.327 17.0344 128.954 16.6766C129.581 16.3188 129.894 15.7656 129.894 15.017C129.894 14.4494 129.642 14.0175 129.139 13.7213C128.818 13.5404 128.183 13.3306 127.234 13.092L125.465 12.6478C124.335 12.3681 123.502 12.0555 122.966 11.71C122.009 11.1095 121.531 10.2787 121.531 9.21748C121.531 7.96709 121.983 6.95527 122.886 6.182C123.789 5.40874 125.003 5.02211 126.529 5.02211C128.525 5.02211 129.964 5.60616 130.847 6.77429C131.399 7.51466 131.667 8.31259 131.651 9.16812H129.548C129.506 8.66632 129.329 8.20977 129.016 7.79846C128.504 7.21439 127.618 6.92237 126.356 6.92237C125.515 6.92237 124.877 7.08278 124.444 7.4036C124.011 7.72442 123.795 8.14807 123.795 8.67455C123.795 9.25039 124.08 9.71105 124.649 10.0566C124.978 10.2622 125.465 10.4432 126.108 10.5995L127.581 10.9573C129.181 11.344 130.253 11.7182 130.797 12.0802C131.663 12.6478 132.096 13.5404 132.096 14.7578C132.096 15.9342 131.649 16.9501 130.754 17.8057C129.859 18.6612 128.496 19.0889 126.665 19.0889C124.694 19.0889 123.298 18.6427 122.477 17.7501C121.657 16.8576 121.218 15.7532 121.16 14.437H123.3ZM135.09 1.67815H137.342V5.36761H139.457V7.18149H137.342V15.8067C137.342 16.2674 137.498 16.5758 137.812 16.7321C137.985 16.8226 138.274 16.8679 138.678 16.8679C138.785 16.8679 138.9 16.8658 139.024 16.8617C139.148 16.8576 139.292 16.8473 139.457 16.8308V18.583C139.201 18.6571 138.935 18.7105 138.659 18.7434C138.383 18.7764 138.084 18.7928 137.762 18.7928C136.723 18.7928 136.018 18.5275 135.647 17.9969C135.276 17.4663 135.09 16.7774 135.09 15.9301V7.18149H133.296V5.36761H135.09V1.67815ZM147.201 5.07147C148.142 5.07147 149.053 5.29151 149.936 5.73162C150.818 6.17172 151.49 6.74138 151.952 7.44062C152.397 8.10695 152.694 8.88431 152.843 9.77275C152.975 10.3815 153.041 11.3522 153.041 12.6848H143.329C143.371 14.0257 143.688 15.1013 144.282 15.9116C144.876 16.7219 145.795 17.127 147.041 17.127C148.204 17.127 149.131 16.7445 149.824 15.9794C150.22 15.5352 150.501 15.0211 150.665 14.437H152.855C152.797 14.9224 152.606 15.4632 152.28 16.0596C151.954 16.656 151.589 17.1434 151.185 17.5219C150.509 18.18 149.672 18.6242 148.674 18.8545C148.138 18.9861 147.531 19.0519 146.855 19.0519C145.206 19.0519 143.808 18.4535 142.661 17.2566C141.515 16.0596 140.942 14.3836 140.942 12.2283C140.942 10.1059 141.519 8.38253 142.674 7.0581C143.828 5.73367 145.338 5.07147 147.201 5.07147ZM150.752 10.9203C150.661 9.95784 150.451 9.18869 150.121 8.61285C149.511 7.54344 148.492 7.00874 147.065 7.00874C146.043 7.00874 145.185 7.37686 144.492 8.11311C143.799 8.84936 143.432 9.78508 143.391 10.9203H150.752ZM155.775 5.36761H157.977V7.24319C158.505 6.59331 158.983 6.12031 159.412 5.82416C160.146 5.32236 160.979 5.07147 161.911 5.07147C162.967 5.07147 163.816 5.33059 164.459 5.84884C164.822 6.14499 165.152 6.58097 165.449 7.15681C165.944 6.44935 166.525 5.92494 167.194 5.58355C167.862 5.24216 168.612 5.07147 169.445 5.07147C171.227 5.07147 172.439 5.7131 173.082 6.9964C173.429 7.68741 173.602 8.61696 173.602 9.78509V18.583H171.288V9.40257C171.288 8.52236 171.068 7.91774 170.627 7.58869C170.185 7.25964 169.647 7.09512 169.012 7.09512C168.138 7.09512 167.385 7.38714 166.754 7.97121C166.123 8.55527 165.808 9.53007 165.808 10.8956V18.583H163.544V9.95784C163.544 9.06118 163.437 8.4072 163.222 7.99589C162.884 7.37892 162.253 7.07044 161.33 7.07044C160.488 7.07044 159.723 7.39537 159.035 8.04525C158.346 8.69512 158.002 9.87146 158.002 11.5743V18.583H155.775V5.36761ZM178.204 14.437C178.27 15.1774 178.456 15.745 178.761 16.1398C179.322 16.8555 180.295 17.2134 181.68 17.2134C182.505 17.2134 183.231 17.0344 183.858 16.6766C184.485 16.3188 184.798 15.7656 184.798 15.017C184.798 14.4494 184.546 14.0175 184.043 13.7213C183.722 13.5404 183.087 13.3306 182.138 13.092L180.369 12.6478C179.239 12.3681 178.406 12.0555 177.87 11.71C176.913 11.1095 176.435 10.2787 176.435 9.21748C176.435 7.96709 176.886 6.95527 177.79 6.182C178.693 5.40874 179.907 5.02211 181.433 5.02211C183.429 5.02211 184.868 5.60616 185.751 6.77429C186.303 7.51466 186.571 8.31259 186.555 9.16812H184.452C184.41 8.66632 184.233 8.20977 183.92 7.79846C183.408 7.21439 182.522 6.92237 181.26 6.92237C180.418 6.92237 179.781 7.08278 179.348 7.4036C178.915 7.72442 178.699 8.14807 178.699 8.67455C178.699 9.25039 178.983 9.71105 179.552 10.0566C179.882 10.2622 180.369 10.4432 181.012 10.5995L182.484 10.9573C184.085 11.344 185.157 11.7182 185.701 12.0802C186.567 12.6478 187 13.5404 187 14.7578C187 15.9342 186.553 16.9501 185.658 17.8057C184.763 18.6612 183.4 19.0889 181.569 19.0889C179.598 19.0889 178.202 18.6427 177.381 17.7501C176.561 16.8576 176.121 15.7532 176.064 14.437H178.204Z" fill="#4065C2"/>
<path d="M94.3141 12.7342C94.3719 13.7625 94.6152 14.5974 95.044 15.2391C95.8606 16.4401 97.2997 17.0406 99.3616 17.0406C100.285 17.0406 101.127 16.909 101.885 16.6458C103.353 16.1357 104.087 15.2226 104.087 13.9064C104.087 12.9193 103.778 12.2159 103.16 11.7964C102.533 11.3851 101.551 11.0273 100.215 10.7229L97.7534 10.1676C96.1451 9.80565 95.0069 9.40669 94.3389 8.97069C93.1842 8.21388 92.6069 7.08278 92.6069 5.57738C92.6069 3.94858 93.1718 2.61183 94.3018 1.5671C95.4317 0.52236 97.0317 0 99.1018 0C101.007 0 102.626 0.458607 103.958 1.37584C105.29 2.29306 105.956 3.75937 105.956 5.77481H103.642C103.518 4.80411 103.254 4.05964 102.85 3.54139C102.1 2.59537 100.826 2.12237 99.0276 2.12237C97.576 2.12237 96.5327 2.42673 95.8977 3.03548C95.2626 3.64422 94.9451 4.35167 94.9451 5.15784C94.9451 6.04628 95.3162 6.69614 96.0585 7.10746C96.5451 7.3707 97.6461 7.69974 99.3616 8.0946L101.91 8.67455C103.139 8.95424 104.087 9.33676 104.756 9.82211C105.91 10.6694 106.488 11.8992 106.488 13.5116C106.488 15.5188 105.756 16.9542 104.292 17.818C102.828 18.6818 101.127 19.1136 99.1884 19.1136C96.9286 19.1136 95.1595 18.5378 93.8811 17.3861C92.6028 16.2427 91.976 14.692 92.0007 12.7342H94.3141ZM117.585 5.36761H120.046C119.733 6.21491 119.036 8.14806 117.956 11.1671C117.147 13.4375 116.471 15.2884 115.927 16.7198C114.64 20.0926 113.733 22.1491 113.205 22.8895C112.677 23.6298 111.77 24 110.483 24C110.17 24 109.929 23.9877 109.76 23.963C109.591 23.9383 109.382 23.8931 109.135 23.8273V21.8036C109.523 21.9105 109.803 21.9764 109.976 22.001C110.149 22.0257 110.302 22.038 110.434 22.038C110.846 22.038 111.149 21.9702 111.343 21.8344C111.537 21.6987 111.7 21.5321 111.832 21.3347C111.873 21.2689 112.022 20.9316 112.277 20.3229C112.533 19.7141 112.719 19.2617 112.834 18.9656L107.935 5.36761H110.459L114.009 16.1275L117.585 5.36761ZM123.3 14.437C123.366 15.1774 123.552 15.745 123.857 16.1398C124.418 16.8555 125.391 17.2134 126.776 17.2134C127.601 17.2134 128.327 17.0344 128.954 16.6766C129.581 16.3188 129.894 15.7656 129.894 15.017C129.894 14.4494 129.642 14.0175 129.139 13.7213C128.818 13.5404 128.183 13.3306 127.234 13.092L125.465 12.6478C124.335 12.3681 123.502 12.0555 122.966 11.71C122.009 11.1095 121.531 10.2787 121.531 9.21748C121.531 7.96709 121.983 6.95527 122.886 6.182C123.789 5.40874 125.003 5.02211 126.529 5.02211C128.525 5.02211 129.964 5.60616 130.847 6.77429C131.399 7.51466 131.667 8.31259 131.651 9.16812H129.548C129.506 8.66632 129.329 8.20977 129.016 7.79846C128.504 7.21439 127.618 6.92237 126.356 6.92237C125.515 6.92237 124.877 7.08278 124.444 7.4036C124.011 7.72442 123.795 8.14807 123.795 8.67455C123.795 9.25039 124.08 9.71105 124.649 10.0566C124.978 10.2622 125.465 10.4432 126.108 10.5995L127.581 10.9573C129.181 11.344 130.253 11.7182 130.797 12.0802C131.663 12.6478 132.096 13.5404 132.096 14.7578C132.096 15.9342 131.649 16.9501 130.754 17.8057C129.859 18.6612 128.496 19.0889 126.665 19.0889C124.694 19.0889 123.298 18.6427 122.477 17.7501C121.657 16.8576 121.218 15.7532 121.16 14.437H123.3ZM135.09 1.67815H137.342V5.36761H139.457V7.18149H137.342V15.8067C137.342 16.2674 137.498 16.5758 137.812 16.7321C137.985 16.8226 138.274 16.8679 138.678 16.8679C138.785 16.8679 138.9 16.8658 139.024 16.8617C139.148 16.8576 139.292 16.8473 139.457 16.8308V18.583C139.201 18.6571 138.935 18.7105 138.659 18.7434C138.383 18.7764 138.084 18.7928 137.762 18.7928C136.723 18.7928 136.018 18.5275 135.647 17.9969C135.276 17.4663 135.09 16.7774 135.09 15.9301V7.18149H133.296V5.36761H135.09V1.67815ZM147.201 5.07147C148.142 5.07147 149.053 5.29151 149.936 5.73162C150.818 6.17172 151.49 6.74138 151.952 7.44062C152.397 8.10695 152.694 8.88431 152.843 9.77275C152.975 10.3815 153.041 11.3522 153.041 12.6848H143.329C143.371 14.0257 143.688 15.1013 144.282 15.9116C144.876 16.7219 145.795 17.127 147.041 17.127C148.204 17.127 149.131 16.7445 149.824 15.9794C150.22 15.5352 150.501 15.0211 150.665 14.437H152.855C152.797 14.9224 152.606 15.4632 152.28 16.0596C151.954 16.656 151.589 17.1434 151.185 17.5219C150.509 18.18 149.672 18.6242 148.674 18.8545C148.138 18.9861 147.531 19.0519 146.855 19.0519C145.206 19.0519 143.808 18.4535 142.661 17.2566C141.515 16.0596 140.942 14.3836 140.942 12.2283C140.942 10.1059 141.519 8.38253 142.674 7.0581C143.828 5.73367 145.338 5.07147 147.201 5.07147ZM150.752 10.9203C150.661 9.95784 150.451 9.18869 150.121 8.61285C149.511 7.54344 148.492 7.00874 147.065 7.00874C146.043 7.00874 145.185 7.37686 144.492 8.11311C143.799 8.84936 143.432 9.78508 143.391 10.9203H150.752ZM155.775 5.36761H157.977V7.24319C158.505 6.59331 158.983 6.12031 159.412 5.82416C160.146 5.32236 160.979 5.07147 161.911 5.07147C162.967 5.07147 163.816 5.33059 164.459 5.84884C164.822 6.14499 165.152 6.58097 165.449 7.15681C165.944 6.44935 166.525 5.92494 167.194 5.58355C167.862 5.24216 168.612 5.07147 169.445 5.07147C171.227 5.07147 172.439 5.7131 173.082 6.9964C173.429 7.68741 173.602 8.61696 173.602 9.78509V18.583H171.288V9.40257C171.288 8.52236 171.068 7.91774 170.627 7.58869C170.185 7.25964 169.647 7.09512 169.012 7.09512C168.138 7.09512 167.385 7.38714 166.754 7.97121C166.123 8.55527 165.808 9.53007 165.808 10.8956V18.583H163.544V9.95784C163.544 9.06118 163.437 8.4072 163.222 7.99589C162.884 7.37892 162.253 7.07044 161.33 7.07044C160.488 7.07044 159.723 7.39537 159.035 8.04525C158.346 8.69512 158.002 9.87146 158.002 11.5743V18.583H155.775V5.36761ZM178.204 14.437C178.27 15.1774 178.456 15.745 178.761 16.1398C179.322 16.8555 180.295 17.2134 181.68 17.2134C182.505 17.2134 183.231 17.0344 183.858 16.6766C184.485 16.3188 184.798 15.7656 184.798 15.017C184.798 14.4494 184.546 14.0175 184.043 13.7213C183.722 13.5404 183.087 13.3306 182.138 13.092L180.369 12.6478C179.239 12.3681 178.406 12.0555 177.87 11.71C176.913 11.1095 176.435 10.2787 176.435 9.21748C176.435 7.96709 176.886 6.95527 177.79 6.182C178.693 5.40874 179.907 5.02211 181.433 5.02211C183.429 5.02211 184.868 5.60616 185.751 6.77429C186.303 7.51466 186.571 8.31259 186.555 9.16812H184.452C184.41 8.66632 184.233 8.20977 183.92 7.79846C183.408 7.21439 182.522 6.92237 181.26 6.92237C180.418 6.92237 179.781 7.08278 179.348 7.4036C178.915 7.72442 178.699 8.14807 178.699 8.67455C178.699 9.25039 178.983 9.71105 179.552 10.0566C179.882 10.2622 180.369 10.4432 181.012 10.5995L182.484 10.9573C184.085 11.344 185.157 11.7182 185.701 12.0802C186.567 12.6478 187 13.5404 187 14.7578C187 15.9342 186.553 16.9501 185.658 17.8057C184.763 18.6612 183.4 19.0889 181.569 19.0889C179.598 19.0889 178.202 18.6427 177.381 17.7501C176.561 16.8576 176.121 15.7532 176.064 14.437H178.204Z" fill="#4065C2"/>
<path d="M9 4C10.1 4 11 3.1 11 2C11 0.9 10.1 0 9 0C7.9 0 7 0.9 7 2C7 3.1 7.9 4 9 4Z" fill="#4065C2"/>
<path d="M12.871 0C12.871 0.124028 13.2113 0.888168 13.2113 1.96833C13.2113 2.70215 13.0565 3.34102 12.7471 3.88491C13.0911 4.10624 13.4962 4.55055 13.7349 4.77914C14.8795 5.94479 15.4518 7.46012 15.4518 9.20859C15.4518 10.9571 14.8795 12.4724 13.7349 13.638C12.5904 14.8037 11.2169 15.3865 9.5 15.3865C7.78313 15.3865 6.40964 14.8037 5.26506 13.638C4.12048 12.4724 3.54819 10.9571 3.54819 9.20859C3.54819 7.46012 4.12048 5.94479 5.26506 4.77914C5.49398 4.54601 6.0133 4.16387 6.15622 4.06934C5.69215 3.22931 5.46012 2.48538 5.46012 1.83753C5.46012 1.18967 5.61291 0.577166 5.9185 0C4.77392 0.466258 3.66265 1.16564 2.74699 2.09816C0.915663 4.07975 0 6.41104 0 9.20859C0 11.8896 0.915663 14.2209 2.74699 16.2025C4.57831 18.0675 6.86747 19 9.5 19C12.1325 19 14.4217 18.0675 16.253 16.2025C18.0843 14.3374 19 12.0061 19 9.20859C19 6.52761 18.0843 4.19632 16.253 2.33129C15.3242 1.44999 14.099 0.506405 12.871 0Z" fill="#4065C2"/>
</svg>
