<svg width="48" height="48" viewBox="0 0 48 48" fill="none" xmlns="http://www.w3.org/2000/svg">
<path d="M24 48C37.2548 48 48 37.2548 48 24C48 10.7452 37.2548 0 24 0C10.7452 0 0 10.7452 0 24C0 37.2548 10.7452 48 24 48Z" fill="#2F242C"/>
<path d="M18.2573 38.6866C18.2573 38.6866 18.0278 38.6722 17.8988 38.6436C18.0422 38.1846 18.4437 38.4141 18.7306 38.328C18.8166 38.2994 18.8883 38.285 18.8023 38.2994C18.8023 38.2994 18.7879 38.2563 18.7736 38.242C17.8558 38.1273 17.1387 37.7257 16.6367 36.9513C15.9627 35.9187 15.9197 34.8431 16.479 33.7532C17.0096 32.7062 17.8988 32.276 19.0604 32.276C23.9795 32.276 28.8842 32.276 33.8033 32.276C35.1514 32.276 35.1514 32.276 35.1514 30.9279C35.1514 25.0336 35.1514 19.1393 35.1514 13.245C35.1514 12.8578 35.1371 12.4849 35.1801 12.0977C35.2375 11.9256 35.2518 11.7249 35.4956 11.7249C35.639 12.1408 35.6103 12.571 35.596 13.0012C35.596 19.3114 35.596 25.6216 35.596 31.9318C35.596 32.276 35.553 32.5628 36.0549 32.6345C37.6898 32.864 38.6364 33.7962 38.7941 35.259C38.9519 36.7648 38.2348 37.8978 36.7003 38.5288C36.5855 38.5718 36.4852 38.6292 36.3704 38.6722C35.7394 38.8013 35.094 38.7009 34.463 38.7296C29.5726 38.7296 24.6966 38.7296 19.8062 38.7296C19.548 38.7296 19.0461 38.7153 19.0461 38.7153L18.2573 38.6866Z" fill="#2F252C"/>
<path d="M35.4814 11.7249C35.4383 11.8396 35.381 11.94 35.338 12.0547C35.0081 11.94 34.9794 11.6245 34.8647 11.3807C34.3341 10.1903 33.4019 9.53063 32.1255 9.53063C26.1308 9.48761 20.1505 9.50195 14.1558 9.50195C14.0124 9.50195 13.869 9.50195 13.7399 9.60234C13.6538 9.67404 13.5535 9.74575 13.4531 9.78877C13.2523 9.84614 13.0802 9.77443 12.9081 9.71707C11.7464 9.28683 10.6995 9.58799 9.9968 10.5345C9.30842 11.4667 9.30842 12.5136 10.0111 13.5175C10.1259 13.6896 10.298 13.833 10.341 14.0625C10.341 14.1916 10.2693 14.2633 10.1546 14.292C8.31886 12.7431 8.73476 10.1043 10.9577 9.20078C11.0724 9.15775 11.2445 9.1721 11.3019 9C18.5156 9 25.7149 9 32.9286 9C33.3445 9.34419 33.9038 9.40156 34.3054 9.77443C34.8934 10.3194 35.3523 10.9217 35.4814 11.7249Z" fill="#342A30"/>
<path d="M10.1689 14.2919C10.2263 14.2489 10.2693 14.2059 10.3267 14.1485C10.5275 13.9621 10.7713 14.0625 11.0007 14.0625C11.6174 14.0481 12.1767 13.9047 12.607 13.4315C12.736 13.288 12.8651 13.1303 12.7791 12.9295C12.693 12.7574 12.4922 12.7861 12.3345 12.7718C11.9616 12.7574 11.5744 12.7861 11.2015 12.7431C10.8 12.6857 10.4558 12.5566 10.3267 12.1264C10.212 11.7248 10.341 11.3806 10.6135 11.0795C10.9721 10.6923 11.4166 10.5202 11.9473 10.5202C12.5639 10.5202 13.1663 10.5632 13.783 10.4915C13.8403 10.1329 13.3814 10.0469 13.4388 9.73139C13.5105 9.67402 13.5678 9.60232 13.6395 9.54495C14.0124 9.44456 14.2275 9.68836 14.4283 9.91783C14.9876 10.5632 15.3892 11.2803 15.3892 12.1694C15.3892 19.9568 15.4179 27.7585 15.3749 35.5458C15.3175 35.7609 15.3605 36.0191 15.045 36.0764C14.9159 35.6892 14.9016 35.2877 14.9016 34.8718C14.9016 28.5329 14.8872 22.194 14.9159 15.8551C14.9159 15.1524 14.6721 14.9803 14.0554 15.0664C13.2954 15.1811 12.5066 15.1237 11.7322 15.0233C11.1298 14.9373 10.5418 14.8226 10.1689 14.2919Z" fill="#2F242C"/>
<path d="M15.0449 36.0765C15.1883 35.9617 15.131 35.7897 15.174 35.6319C15.4895 35.6749 15.4895 35.9617 15.5612 36.1625C16.0058 37.4246 16.9236 38.0556 18.2287 38.1847C18.6016 38.2277 18.9888 38.1129 19.3186 38.3854C18.8884 38.744 18.3291 38.3281 17.8845 38.6436C16.393 38.3854 15.4035 37.5967 15.0449 36.0765Z" fill="#483D41"/>
<path d="M19.3329 38.371C18.7736 38.3567 18.2 38.4284 17.6407 38.2993C16.2352 37.9408 15.5325 36.9513 15.1883 35.6318C15.1883 27.9162 15.1883 20.2006 15.2026 12.4849C15.2026 11.2372 14.7724 10.219 13.6681 9.55929C13.6538 9.48758 13.5534 9.35851 13.6968 9.34417C13.9119 9.31549 14.127 9.32983 14.3422 9.32983C20.1217 9.32983 25.8869 9.31549 31.6665 9.30115C33.7173 9.30115 34.7212 10.0326 35.3522 12.069C35.3379 18.6087 35.3235 25.1483 35.3379 31.688C35.3379 32.3333 35.1801 32.5198 34.5204 32.5198C29.8882 32.4911 25.2703 32.5198 20.638 32.5198C20.1074 32.5198 19.5911 32.4768 19.0605 32.4768C17.569 32.4624 16.4217 33.495 16.3213 34.9435C16.2209 36.5354 17.2534 37.8691 18.7593 38.0269C18.9457 38.0412 19.1465 38.0269 19.3329 38.0699C19.5767 38.1416 19.376 38.2707 19.3329 38.371Z" fill="#E4D0B7"/>
<path d="M20.1936 38.3854C22.3735 36.5067 22.058 34.5132 20.4374 32.95C20.5952 32.7923 20.7959 32.864 20.968 32.864C25.8298 32.864 30.6915 32.8496 35.5532 32.864C37.6757 32.864 38.9377 34.5276 38.3641 36.5067C38.0916 37.4245 37.0017 38.3711 36.0408 38.3711C30.8205 38.3997 25.5716 38.3854 20.1936 38.3854Z" fill="#D6AE94"/>
<path d="M20.9248 34.04C20.1647 34.04 19.5767 34.0543 18.9744 34.04C18.4294 34.0256 17.9848 34.1977 17.698 34.671C17.3825 35.1729 17.6263 35.6319 18.1999 35.6749C18.6302 35.7036 19.0604 35.7323 19.4907 35.7323C19.8492 35.7323 19.9066 35.8757 19.7631 36.1768C19.462 36.8365 18.917 37.0947 18.2286 37.1807C17.6119 37.2524 17.2964 36.8796 17.0383 36.435C16.5363 35.6032 16.5794 34.7427 17.0526 33.9109C17.4972 33.1365 18.243 32.7779 19.0891 32.821C19.8349 32.8783 20.3655 33.3946 20.9248 34.04Z" fill="#C8A38A"/>
<path d="M18.7593 37.654C20.136 36.8652 20.4085 36.3059 20.093 34.7858C20.0643 34.6567 20.0213 34.5133 20.1791 34.5133C20.5089 34.5133 20.9535 34.2981 21.1543 34.6854C21.4985 35.3594 21.4268 36.0765 21.0969 36.7505C20.8101 37.3242 20.4516 37.8118 19.6771 37.6684C19.3903 37.611 19.0748 37.654 18.7593 37.654Z" fill="#B98F67"/>
<path d="M13.453 9.73141C13.7255 10.0182 14.127 10.1903 14.2991 10.7353C13.496 10.7353 12.7216 10.7496 11.9615 10.7353C11.4595 10.721 11.0293 10.8644 10.6708 11.2373C10.427 11.4954 10.3122 11.7966 10.4413 12.1551C10.5704 12.4849 10.8572 12.5997 11.187 12.5997C11.6603 12.614 12.1336 12.6284 12.6068 12.5997C13.2522 12.5567 13.2092 12.8291 12.9797 13.2594C12.5351 14.0768 11.7894 14.2776 10.9289 14.2776C10.7138 14.2776 10.513 14.2203 10.2979 14.1772C9.55214 13.3311 9.07887 12.4132 9.4374 11.2373C9.96803 9.51629 11.5026 8.9283 13.453 9.73141Z" fill="#C9A58B"/>
<path d="M11.3306 14.6648C13.2523 14.335 14.1271 12.7718 13.2666 11.2086C13.2953 11.1799 13.3384 11.1369 13.367 11.1369C14.7725 11.0652 14.8585 11.1369 14.8585 12.5567C14.8585 13.1303 14.8442 13.704 14.8585 14.2633C14.8729 14.6218 14.7438 14.7366 14.3709 14.7796C13.4101 14.88 12.4492 14.8369 11.3306 14.6648Z" fill="#B88E66"/>
<path d="M25.6863 14.966C23.4634 14.966 21.2549 14.966 19.0319 14.966C18.7738 14.966 18.5013 14.9517 18.2575 14.8943C17.9707 14.8226 17.856 14.5931 17.856 14.292C17.8703 14.0051 17.9563 13.7613 18.2719 13.704C18.53 13.6609 18.7881 13.6179 19.0463 13.6179C23.5064 13.6179 27.9666 13.6179 32.4268 13.6179C32.6849 13.6179 32.943 13.6609 33.2012 13.704C33.5167 13.7613 33.6028 14.0051 33.6171 14.292C33.6314 14.5931 33.488 14.8083 33.2012 14.88C32.943 14.9373 32.6849 14.9517 32.4268 14.9517C30.1608 14.966 27.9236 14.966 25.6863 14.966Z" fill="#423536"/>
<path d="M25.6719 20.3727C23.5064 20.3727 21.3265 20.3727 19.161 20.3727C18.8741 20.3727 18.5873 20.3583 18.3005 20.3296C17.985 20.301 17.8559 20.0715 17.8416 19.7847C17.8272 19.4979 17.8989 19.2684 18.2001 19.1537C18.4582 19.0533 18.7164 19.0676 18.9745 19.0676C23.4777 19.0676 27.9952 19.0676 32.4984 19.0676C32.6705 19.0676 32.8283 19.0533 33.0004 19.082C33.3732 19.1393 33.617 19.3401 33.6027 19.7417C33.5884 20.1576 33.3732 20.344 32.9717 20.344C32.3693 20.344 31.7813 20.344 31.179 20.344C29.3433 20.344 27.5076 20.344 25.6719 20.344C25.6719 20.344 25.6719 20.3583 25.6719 20.3727Z" fill="#3D3033"/>
<path d="M25.6433 17.6622C23.4778 17.6622 21.2979 17.6622 19.1323 17.6622C18.9172 17.6622 18.7021 17.6622 18.487 17.6478C18.1141 17.6192 17.8559 17.4757 17.8416 17.0455C17.8273 16.5866 18.0997 16.4145 18.5013 16.3715C18.6877 16.3571 18.8885 16.3571 19.075 16.3571C23.5064 16.3571 27.9523 16.3571 32.3837 16.3571C32.5271 16.3571 32.6706 16.3571 32.814 16.3571C33.2299 16.3715 33.5884 16.4718 33.6027 16.9881C33.6171 17.5474 33.2299 17.6622 32.7853 17.6622C30.4046 17.6622 28.024 17.6478 25.6433 17.6622Z" fill="#3F3134"/>
<path d="M25.7006 28.5042C23.4633 28.5042 21.2117 28.5042 18.9745 28.5042C18.7307 28.5042 18.5012 28.5042 18.2574 28.4612C17.9849 28.4182 17.8558 28.2317 17.8415 27.9449C17.8272 27.6724 17.8702 27.3999 18.1714 27.2995C18.4008 27.2278 18.6446 27.2135 18.8741 27.2135C23.4346 27.2135 27.9808 27.2135 32.5414 27.2135C32.7278 27.2135 32.9286 27.2135 33.115 27.2565C33.4736 27.3282 33.6313 27.572 33.6026 27.9306C33.5883 28.2748 33.3875 28.4469 33.0577 28.4755C32.8139 28.4899 32.5844 28.4899 32.3406 28.4899C30.132 28.5042 27.9091 28.5042 25.7006 28.5042Z" fill="#392D32"/>
<path d="M33.5022 22.7533C33.2584 23.2409 32.7995 23.0832 32.4266 23.0832C28.3537 23.0832 24.2664 23.0832 20.1934 23.0688C19.6198 23.0688 19.0461 23.0832 18.4725 23.0688C18.2 23.0688 17.9275 22.9684 17.8701 22.6673C17.8271 22.3661 17.7554 22.0219 18.1857 21.9072C22.9326 21.8928 27.6796 21.9072 32.4266 21.9072C32.7134 21.9072 33.0576 21.8068 33.2441 22.151C32.8855 22.4952 32.4409 22.4091 32.025 22.4091C27.9234 22.4091 23.8218 22.4091 19.7202 22.4091C19.4333 22.4091 19.1609 22.3804 18.7306 22.4808C19.376 22.5669 19.8779 22.5382 20.3799 22.5382C24.2234 22.5382 28.0668 22.5382 31.896 22.5382C32.3119 22.5382 32.7565 22.6242 33.115 22.2944C33.4305 22.1653 33.4305 22.1653 33.5022 22.7533Z" fill="#403336"/>
<path d="M18.0566 31.057C17.6837 30.3686 17.8415 29.9957 18.5586 29.9527C19.1466 29.9097 19.7489 29.9384 20.3369 29.9384C24.4385 29.9384 28.5258 29.9384 32.6274 29.9384C32.9573 29.9384 33.3301 29.8954 33.5166 30.2539C33.66 30.5407 33.703 30.8562 33.3732 31.0713C33.1724 31.1861 33.0433 31.1 32.986 30.8993C32.9142 30.3973 32.5127 30.426 32.1685 30.426C31.1503 30.4116 30.1177 30.4116 29.0995 30.4116C25.9013 30.4116 22.7176 30.4116 19.5194 30.4116C19.1179 30.4116 18.6159 30.2826 18.4582 30.8706C18.3578 31.0427 18.2717 31.2004 18.0566 31.057Z" fill="#35292F"/>
<path d="M18.0566 25.6073C17.6694 24.8902 17.8845 24.5174 18.7306 24.5174C20.4229 24.503 22.1152 24.5174 23.8075 24.5174C26.7331 24.5174 29.6731 24.5174 32.5987 24.5174C33.4879 24.5174 33.66 24.7181 33.5022 25.4782C33.1724 25.5069 33.1867 25.0767 32.8999 25.0623C32.6704 24.9906 32.4266 24.9906 32.1828 24.9906C27.9091 24.9906 23.6497 24.9906 19.376 25.005C19.0462 25.005 18.5585 24.8329 18.5155 25.4495C18.4582 25.7507 18.2717 25.722 18.0566 25.6073Z" fill="#2D232B"/>
<path d="M33.5023 22.7534C33.2729 22.6386 33.4593 22.2944 33.2155 22.1797C32.9861 21.9216 32.6849 22.0363 32.4124 22.0363C27.9379 22.022 23.4777 22.0363 19.0032 22.022C18.7308 22.022 18.4296 22.1224 18.1858 21.8929C18.4009 21.7495 18.6447 21.7782 18.8742 21.7782C23.4491 21.7782 28.024 21.7782 32.5988 21.7782C33.488 21.7782 33.6601 21.9933 33.5023 22.7534Z" fill="#2C222A"/>
<path d="M33.2154 24.9045C33.4449 25.0336 33.2585 25.3635 33.5023 25.4782C33.3445 25.8654 33.0003 25.7937 32.7135 25.7937C28.0526 25.7937 23.3773 25.7937 18.7163 25.7937C18.4869 25.7937 18.2287 25.8511 18.0566 25.6216C18.2001 25.6073 18.3578 25.6503 18.4582 25.5069C18.788 25.1627 19.2039 25.2631 19.6055 25.2631C23.6928 25.2487 27.7801 25.2631 31.8817 25.2631C32.355 25.2487 32.8282 25.2631 33.2154 24.9045Z" fill="#413537"/>
<path d="M33.072 30.9279C33.1437 31.0426 33.2585 31.057 33.3732 31.0713C33.1437 31.3151 32.8426 31.2434 32.5701 31.2434C27.9952 31.2434 23.4346 31.2434 18.8598 31.2434C18.5873 31.2434 18.2861 31.3151 18.0566 31.057C18.1714 31.057 18.2718 31.0283 18.3291 30.9136C18.6016 30.6411 18.9458 30.6841 19.2757 30.6841C23.5637 30.6841 27.8518 30.6698 32.1398 30.6841C32.4553 30.6841 32.7995 30.6554 33.072 30.9279Z" fill="#423436"/>
<path d="M25.7005 13.9908C27.9951 13.9908 30.2754 13.9908 32.57 13.9908C32.8281 13.9908 33.2297 13.8617 33.2154 14.3206C33.201 14.7222 32.8281 14.5931 32.5987 14.5931C28.0238 14.6075 23.4489 14.6075 18.874 14.5931C18.6302 14.5931 18.2 14.7365 18.2287 14.2776C18.2573 13.8617 18.6589 13.9908 18.917 13.9908C21.1686 13.9908 23.4346 13.9908 25.7005 13.9908Z" fill="#BF936C"/>
<path d="M25.7006 20.0428C23.406 20.0428 21.1257 20.0428 18.8311 20.0428C18.5873 20.0428 18.2144 20.1575 18.2001 19.7703C18.1857 19.3114 18.6016 19.4548 18.8454 19.4548C23.4203 19.4405 28.0095 19.4405 32.5844 19.4548C32.8139 19.4548 33.1868 19.3257 33.2011 19.7273C33.2155 20.1862 32.8139 20.0571 32.5558 20.0571C30.2755 20.0428 27.9809 20.0428 25.7006 20.0428Z" fill="#BF926B"/>
<path d="M25.7722 16.7156C28.0381 16.7156 30.3041 16.7156 32.57 16.73C32.8138 16.73 33.2297 16.5722 33.2153 17.0455C33.201 17.4327 32.8281 17.318 32.5987 17.318C28.0238 17.318 23.4345 17.318 18.8597 17.318C18.6015 17.318 18.1856 17.447 18.2143 17.0024C18.243 16.5722 18.6589 16.73 18.9027 16.73C21.183 16.7013 23.4776 16.7156 25.7722 16.7156Z" fill="#BF936B"/>
<path d="M25.6145 28.203C23.3486 28.203 21.0826 28.203 18.8167 28.203C18.5586 28.203 18.1713 28.3178 18.1857 27.8588C18.2 27.4286 18.5729 27.5147 18.8454 27.5147C23.4203 27.5147 27.9952 27.5147 32.5844 27.5147C32.8569 27.5147 33.2298 27.4573 33.2154 27.8875C33.2011 28.3321 32.7995 28.203 32.5557 28.203C30.2468 28.203 27.9378 28.203 25.6145 28.203Z" fill="#B98F69"/>
<path d="M33.2154 22.1797C33.3302 22.7246 33.0146 22.7533 32.5987 22.7533C29.2142 22.739 25.8296 22.739 22.4451 22.739C21.2117 22.739 19.964 22.739 18.7307 22.739C18.4869 22.739 18.2 22.7533 18.2144 22.4091C18.2144 22.0936 18.5012 22.151 18.702 22.151C23.535 22.1653 28.3681 22.1653 33.2154 22.1797Z" fill="#BB906A"/>
<path d="M33.0721 30.9279C28.153 30.9279 23.2339 30.9279 18.3292 30.9135C18.028 30.4976 18.2001 30.3112 18.6447 30.2538C18.7164 30.2395 18.7881 30.2395 18.8598 30.2395C23.449 30.2395 28.0383 30.2395 32.6275 30.2395C33.1008 30.2395 33.4593 30.3255 33.0721 30.9279Z" fill="#B88E68"/>
<path d="M33.2154 24.9046C33.3445 25.5929 32.8425 25.4782 32.4553 25.4782C27.9808 25.4782 23.5063 25.4782 19.0318 25.4782C18.8454 25.4782 18.6446 25.4925 18.4582 25.4925C18.2287 25.4352 18.1283 25.3061 18.1714 25.0766C18.2144 24.8328 18.4152 24.8042 18.6016 24.7898C18.745 24.7755 18.8884 24.7898 19.0318 24.7898C23.4776 24.7898 27.9235 24.7898 32.3693 24.7898C32.6561 24.7898 32.9573 24.7611 33.2154 24.9046Z" fill="#BC916A"/>
</svg>
